name C:\Users\u0150099\Documents\master_thesis\3dpredictsim\Results\debug\Fal_s1_mtp_sc_Sv80_MTPp_k17_d05_ig21.mot
datacolumns 126
datarows 4
range 0.00000000 0.03331612
endheader
time	pelvis_tilt	pelvis_list	pelvis_rotation	pelvis_tx	pelvis_ty	pelvis_tz	hip_flexion_l	hip_adduction_l	hip_rotation_l	hip_flexion_r	hip_adduction_r	hip_rotation_r	knee_angle_l	knee_angle_r	ankle_angle_l	ankle_angle_r	subtalar_angle_l	subtalar_angle_r	mtp_angle_l	mtp_angle_r	lumbar_extension	lumbar_bending	lumbar_rotation	arm_flex_l	arm_add_l	arm_rot_l	arm_flex_r	arm_add_r	arm_rot_r	elbow_flex_l	elbow_flex_r	pro_sup_l	pro_sup_r	glut_med1_l/activation	glut_med2_l/activation	glut_med3_l/activation	glut_min1_l/activation	glut_min2_l/activation	glut_min3_l/activation	semimem_l/activation	semiten_l/activation	bifemlh_l/activation	bifemsh_l/activation	sar_l/activation	add_long_l/activation	add_brev_l/activation	add_mag1_l/activation	add_mag2_l/activation	add_mag3_l/activation	tfl_l/activation	pect_l/activation	grac_l/activation	glut_max1_l/activation	glut_max2_l/activation	glut_max3_l/activation	iliacus_l/activation	psoas_l/activation	quad_fem_l/activation	gem_l/activation	peri_l/activation	rect_fem_l/activation	vas_med_l/activation	vas_int_l/activation	vas_lat_l/activation	med_gas_l/activation	lat_gas_l/activation	soleus_l/activation	tib_post_l/activation	flex_dig_l/activation	flex_hal_l/activation	tib_ant_l/activation	per_brev_l/activation	per_long_l/activation	per_tert_l/activation	ext_dig_l/activation	ext_hal_l/activation	ercspn_l/activation	intobl_l/activation	extobl_l/activation	glut_med1_r/activation	glut_med2_r/activation	glut_med3_r/activation	glut_min1_r/activation	glut_min2_r/activation	glut_min3_r/activation	semimem_r/activation	semiten_r/activation	bifemlh_r/activation	bifemsh_r/activation	sar_r/activation	add_long_r/activation	add_brev_r/activation	add_mag1_r/activation	add_mag2_r/activation	add_mag3_r/activation	tfl_r/activation	pect_r/activation	grac_r/activation	glut_max1_r/activation	glut_max2_r/activation	glut_max3_r/activation	iliacus_r/activation	psoas_r/activation	quad_fem_r/activation	gem_r/activation	peri_r/activation	rect_fem_r/activation	vas_med_r/activation	vas_int_r/activation	vas_lat_r/activation	med_gas_r/activation	lat_gas_r/activation	soleus_r/activation	tib_post_r/activation	flex_dig_r/activation	flex_hal_r/activation	tib_ant_r/activation	per_brev_r/activation	per_long_r/activation	per_tert_r/activation	ext_dig_r/activation	ext_hal_r/activation	ercspn_r/activation	intobl_r/activation	extobl_r/activation	
          0.00000000	         -2.92991589	         -2.28534813	          5.84245499	          0.00000000	          0.90910273	         -0.00469209	        -18.77926734	         -1.41351765	          8.37341023	         30.56222090	          3.02355967	         -2.29437380	         -5.03393196	        -10.70034595	          1.15049549	          7.43316392	         10.38988811	         -4.19204817	         23.32379909	         -0.16522904	         -3.41674836	          1.02726872	         -2.23178254	          9.55894877	        -13.57598184	         19.38771540	         -9.79518905	        -13.48655540	          5.87224541	         39.68575203	         16.54012084	         86.51662706	         86.51662706	          0.26260144	          0.10308784	          0.08321906	          0.36319775	          0.24313753	          0.13192840	          0.05000066	          0.05000014	          0.05000010	          0.08126673	          0.12720293	          0.08393576	          0.05000026	          0.05000021	          0.05000063	          0.05000038	          0.60759864	          0.05008281	          0.05000070	          0.05000313	          0.05000172	          0.05000085	          0.46837225	          0.76894923	          0.05000031	          0.05000117	          0.07022102	          0.37430390	          0.05001303	          0.05000217	          0.05000101	          0.31364761	          0.42196372	          0.28882759	          0.31334288	          0.49781387	          0.52644630	          0.05000001	          0.05000099	          0.07192613	          0.05000011	          0.05000003	          0.05000015	          0.05000001	          0.05000001	          0.05000001	          0.15841876	          0.05000008	          0.05002938	          0.05000008	          0.05000010	          0.05000025	          0.24976527	          0.06065114	          0.32594013	          0.05000033	          0.05906987	          0.13790133	          0.15549045	          0.21206597	          0.13864527	          0.13732248	          0.05000193	          0.05926051	          0.10770722	          0.05000066	          0.09116539	          0.11131196	          0.05000057	          0.05000057	          0.30179778	          0.05002939	          0.05000048	          0.05000276	          0.10269348	          0.09617672	          0.08946745	          0.05925431	          0.05018472	          0.05577371	          0.05000011	          0.05000036	          0.05000043	          0.46384077	          0.31747041	          0.16158502	          0.39545068	          0.42693960	          0.28206023	          0.07925688	          0.07851051	          0.10061628	
          0.01110537	         -2.92684453	         -2.45696169	          6.20468552	          0.01773782	          0.90784143	         -0.00434675	        -18.63909949	         -1.81282423	          8.24033788	         30.11444975	          3.44201773	         -2.15838337	         -7.05855686	        -10.82067356	          0.32880319	          6.92579371	         11.35646139	         -4.53077589	         24.39442379	         -0.08898511	         -3.22981931	          1.28188578	         -2.36838459	          9.30510002	        -13.52326606	         19.35614069	        -10.84744342	        -13.45958488	          5.94327710	         41.20294017	         16.15229061	         86.51662706	         86.51662706	          0.22158796	          0.08698740	          0.07022177	          0.30647297	          0.20516389	          0.11132360	          0.05000119	          0.05000020	          0.05000016	          0.06857435	          0.10733622	          0.15232820	          0.13673424	          0.05001655	          0.05000295	          0.05000131	          0.51270380	          0.11685710	          0.05000116	          0.05000140	          0.05000086	          0.05000074	          0.39522102	          0.70044709	          0.05000016	          0.05000108	          0.05925421	          0.35536421	          0.05471449	          0.19017126	          0.13913574	          0.26466154	          0.35606065	          0.24371796	          0.29585233	          0.47260625	          0.50560870	          0.05000002	          0.05000021	          0.06318114	          0.05000008	          0.05000002	          0.05000011	          0.05163771	          0.06422444	          0.05000002	          0.13367719	          0.05925444	          0.05000008	          0.05925499	          0.05925456	          0.05000291	          0.21832746	          0.05117967	          0.28277761	          0.05405983	          0.05000052	          0.11636416	          0.13120591	          0.18796945	          0.23850181	          0.16265071	          0.05000014	          0.05000664	          0.09088767	          0.05925422	          0.14248839	          0.17828958	          0.05000027	          0.05000031	          0.59881669	          0.12429378	          0.05000108	          0.07022168	          0.09851488	          0.11717683	          0.07549693	          0.05000000	          0.05000001	          0.05000000	          0.05000004	          0.05000023	          0.05000015	          0.51856043	          0.28731079	          0.17200093	          0.59398965	          0.45708246	          0.24176689	          0.06687840	          0.06624860	          0.08490184	
          0.02221074	         -2.92039208	         -2.62553110	          6.54367573	          0.03577037	          0.90665688	         -0.00400119	        -18.42668707	         -2.20766412	          8.08433561	         29.63307366	          3.80068390	         -1.95734164	         -9.18086987	        -11.66533012	         -0.72719199	          6.21092047	         12.30747715	         -4.87355783	         25.29529493	         -0.15062631	         -3.02310576	          1.53481055	         -2.49244994	          8.94988367	        -13.48027125	         19.29510750	        -11.91840303	        -13.44988126	          6.26123695	         42.73600262	         15.82432702	         86.51662706	         86.51662706	          0.24343944	          0.07340156	          0.05925443	          0.25860764	          0.17312105	          0.09393689	          0.05000126	          0.05000036	          0.05000032	          0.05786432	          0.09057233	          0.19048044	          0.22758019	          0.05925474	          0.05924791	          0.05001279	          0.51821889	          0.09861904	          0.05002734	          0.05000856	          0.05000489	          0.05000736	          0.33349468	          0.66391496	          0.05925322	          0.05000213	          0.05000009	          0.29986278	          0.16414282	          0.16047096	          0.11740627	          0.22332620	          0.30045043	          0.20565363	          0.26059709	          0.39879436	          0.42664369	          0.05000001	          0.05000009	          0.08791963	          0.05000005	          0.05000001	          0.05000010	          0.06636431	          0.05419379	          0.05000018	          0.33394205	          0.05000007	          0.30738762	          0.05000048	          0.05000016	          0.05000014	          0.18422872	          0.05000009	          0.23861289	          0.05000003	          0.05000021	          0.09862043	          0.30252903	          0.26509742	          0.24753542	          0.20764470	          0.05000031	          0.06794821	          0.10164420	          0.05000017	          0.20086042	          0.21067648	          0.05000033	          0.05000017	          0.50529242	          0.10488141	          0.09083761	          0.05925440	          0.08312945	          0.09887620	          0.06370618	          0.06274256	          0.06806710	          0.05925456	          0.05925449	          0.05925430	          0.05925447	          0.43757069	          0.31555420	          0.15089756	          0.50121942	          0.46821198	          0.20400731	          0.05643322	          0.05590180	          0.07164172	
          0.03331612	         -2.91182921	         -2.79328008	          6.85185205	          0.05395462	          0.90556503	         -0.00362894	        -18.12815883	         -2.59525065	          7.91449831	         29.06927851	          4.11520496	         -1.76324398	        -11.40574786	        -12.62439741	         -2.02012336	          5.67326251	         13.20580138	         -5.20963724	         25.98599039	         -0.23984864	         -2.80856195	          1.78407836	         -2.60415718	          8.51549696	        -13.45468985	         19.22224023	        -12.97035724	        -13.45088504	          6.76924483	         44.27058271	         15.53478803	         86.51662706	         86.51662706	          0.22329366	          0.06193758	          0.05000003	          0.27617193	          0.14608272	          0.07926568	          0.05000181	          0.05000012	          0.05000009	          0.05000012	          0.07642665	          0.20621645	          0.19203659	          0.05000052	          0.05000057	          0.05000048	          0.55390508	          0.08321713	          0.05000031	          0.05000073	          0.05000041	          0.05000026	          0.28140888	          0.62181440	          0.05000004	          0.05000025	          0.05000012	          0.25302972	          0.13850853	          0.13850854	          0.13850843	          0.18844669	          0.25352552	          0.17353426	          0.21989763	          0.33651008	          0.36000988	          0.05000001	          0.06222834	          0.09862164	          0.05000009	          0.05000002	          0.05000008	          0.07795011	          0.05000000	          0.05000002	          0.38380486	          0.30461906	          0.38104766	          0.14071124	          0.16997250	          0.12742471	          0.15545555	          0.12076642	          0.20134589	          0.08321881	          0.05002499	          0.08321774	          0.25527951	          0.22369413	          0.20887520	          0.22591086	          0.05000023	          0.05733622	          0.14099449	          0.25352500	          0.24217566	          0.22108549	          0.05000011	          0.05000013	          0.42637505	          0.08850099	          0.07665060	          0.05000002	          0.07014616	          0.08343355	          0.05375645	          0.05294332	          0.05743627	          0.05000007	          0.05000003	          0.05000009	          0.05000012	          0.56861331	          0.33554020	          0.15511769	          0.71340338	          0.52542807	          0.36698923	          0.08259222	          0.07361533	          0.06045259	
